<svg width="216" height="24" viewBox="0 0 216 24" fill="none" xmlns="http://www.w3.org/2000/svg">
<g clip-path="url(#clip0_3323_439)">
<path d="M24 12C24 5.37258 18.6274 0 12 0C5.37258 0 0 5.37258 0 12C0 17.9895 4.3882 22.954 10.125 23.8542V15.4688H7.07812V12H10.125V9.35625C10.125 6.34875 11.9166 4.6875 14.6576 4.6875C15.9701 4.6875 17.3438 4.92188 17.3438 4.92188V7.875H15.8306C14.34 7.875 13.875 8.80008 13.875 9.75V12H17.2031L16.6711 15.4688H13.875V23.8542C19.6118 22.954 24 17.9895 24 12Z" fill="#00171F"/>
</g>
<g clip-path="url(#clip1_3323_439)">
<path d="M71.5502 21.75C80.6045 21.75 85.5583 14.2467 85.5583 7.74186C85.5583 7.53092 85.5536 7.3153 85.5442 7.10436C86.5079 6.40746 87.3395 5.54425 88 4.5553C87.1025 4.9546 86.1496 5.21538 85.1739 5.32874C86.2013 4.71291 86.9705 3.74547 87.3391 2.60577C86.3726 3.17856 85.3156 3.58261 84.2134 3.80061C83.4708 3.01156 82.489 2.48912 81.4197 2.31405C80.3504 2.13899 79.2532 2.32105 78.2977 2.8321C77.3423 3.34314 76.5818 4.15471 76.1338 5.14131C75.6859 6.12792 75.5754 7.23462 75.8195 8.2903C73.8625 8.19209 71.9479 7.6837 70.2 6.7981C68.452 5.91249 66.9097 4.66944 65.673 3.14952C65.0444 4.23324 64.8521 5.51565 65.135 6.73609C65.418 7.95654 66.1551 9.02345 67.1964 9.71999C66.4146 9.69517 65.65 9.48468 64.9656 9.10592V9.16686C64.9649 10.3041 65.3581 11.4066 66.0783 12.2868C66.7985 13.167 67.8013 13.7706 68.9162 13.995C68.1921 14.1931 67.432 14.222 66.6948 14.0794C67.0095 15.0574 67.6216 15.9129 68.4458 16.5263C69.27 17.1398 70.2651 17.4806 71.2923 17.5012C69.5484 18.8711 67.3942 19.6141 65.1766 19.6106C64.7833 19.61 64.3904 19.5859 64 19.5384C66.2529 20.9837 68.8735 21.7514 71.5502 21.75Z" fill="#00171F"/>
</g>
<g clip-path="url(#clip2_3323_439)">
<path d="M140 2.16094C143.206 2.16094 143.586 2.175 144.847 2.23125C146.019 2.28281 146.652 2.47969 147.073 2.64375C147.631 2.85938 148.034 3.12188 148.452 3.53906C148.873 3.96094 149.131 4.35938 149.347 4.91719C149.511 5.33906 149.708 5.97656 149.759 7.14375C149.816 8.40937 149.83 8.78906 149.83 11.9906C149.83 15.1969 149.816 15.5766 149.759 16.8375C149.708 18.0094 149.511 18.6422 149.347 19.0641C149.131 19.6219 148.869 20.025 148.452 20.4422C148.03 20.8641 147.631 21.1219 147.073 21.3375C146.652 21.5016 146.014 21.6984 144.847 21.75C143.581 21.8062 143.202 21.8203 140 21.8203C136.794 21.8203 136.414 21.8062 135.153 21.75C133.981 21.6984 133.348 21.5016 132.927 21.3375C132.369 21.1219 131.966 20.8594 131.548 20.4422C131.127 20.0203 130.869 19.6219 130.653 19.0641C130.489 18.6422 130.292 18.0047 130.241 16.8375C130.184 15.5719 130.17 15.1922 130.17 11.9906C130.17 8.78438 130.184 8.40469 130.241 7.14375C130.292 5.97187 130.489 5.33906 130.653 4.91719C130.869 4.35938 131.131 3.95625 131.548 3.53906C131.97 3.11719 132.369 2.85938 132.927 2.64375C133.348 2.47969 133.986 2.28281 135.153 2.23125C136.414 2.175 136.794 2.16094 140 2.16094ZM140 0C136.742 0 136.334 0.0140625 135.055 0.0703125C133.78 0.126563 132.903 0.332812 132.144 0.628125C131.352 0.9375 130.681 1.34531 130.016 2.01562C129.345 2.68125 128.938 3.35156 128.628 4.13906C128.333 4.90313 128.127 5.775 128.07 7.05C128.014 8.33437 128 8.74219 128 12C128 15.2578 128.014 15.6656 128.07 16.9453C128.127 18.2203 128.333 19.0969 128.628 19.8563C128.938 20.6484 129.345 21.3188 130.016 21.9844C130.681 22.65 131.352 23.0625 132.139 23.3672C132.903 23.6625 133.775 23.8687 135.05 23.925C136.33 23.9812 136.738 23.9953 139.995 23.9953C143.253 23.9953 143.661 23.9812 144.941 23.925C146.216 23.8687 147.092 23.6625 147.852 23.3672C148.639 23.0625 149.309 22.65 149.975 21.9844C150.641 21.3188 151.053 20.6484 151.358 19.8609C151.653 19.0969 151.859 18.225 151.916 16.95C151.972 15.6703 151.986 15.2625 151.986 12.0047C151.986 8.74688 151.972 8.33906 151.916 7.05938C151.859 5.78438 151.653 4.90781 151.358 4.14844C151.062 3.35156 150.655 2.68125 149.984 2.01562C149.319 1.35 148.648 0.9375 147.861 0.632812C147.097 0.3375 146.225 0.13125 144.95 0.075C143.666 0.0140625 143.258 0 140 0Z" fill="#00171F"/>
<path d="M140 5.83594C136.597 5.83594 133.836 8.59688 133.836 12C133.836 15.4031 136.597 18.1641 140 18.1641C143.403 18.1641 146.164 15.4031 146.164 12C146.164 8.59688 143.403 5.83594 140 5.83594ZM140 15.9984C137.792 15.9984 136.002 14.2078 136.002 12C136.002 9.79219 137.792 8.00156 140 8.00156C142.208 8.00156 143.998 9.79219 143.998 12C143.998 14.2078 142.208 15.9984 140 15.9984Z" fill="#00171F"/>
<path d="M147.847 5.59214C147.847 6.38902 147.2 7.0312 146.408 7.0312C145.611 7.0312 144.969 6.38433 144.969 5.59214C144.969 4.79526 145.616 4.15308 146.408 4.15308C147.2 4.15308 147.847 4.79995 147.847 5.59214Z" fill="#00171F"/>
</g>
<path d="M215.761 7.20005C215.761 7.20005 215.527 5.54536 214.805 4.8188C213.891 3.86255 212.869 3.85786 212.4 3.80161C209.044 3.55786 204.005 3.55786 204.005 3.55786H203.995C203.995 3.55786 198.956 3.55786 195.6 3.80161C195.131 3.85786 194.109 3.86255 193.195 4.8188C192.473 5.54536 192.244 7.20005 192.244 7.20005C192.244 7.20005 192 9.14536 192 11.086V12.9047C192 14.8454 192.239 16.7907 192.239 16.7907C192.239 16.7907 192.473 18.4454 193.191 19.1719C194.105 20.1282 195.305 20.0954 195.839 20.1985C197.761 20.3813 204 20.4375 204 20.4375C204 20.4375 209.044 20.4282 212.4 20.1891C212.869 20.1329 213.891 20.1282 214.805 19.1719C215.527 18.4454 215.761 16.7907 215.761 16.7907C215.761 16.7907 216 14.85 216 12.9047V11.086C216 9.14536 215.761 7.20005 215.761 7.20005ZM201.52 15.1125V8.36724L208.003 11.7516L201.52 15.1125Z" fill="#00171F"/>
<defs>
<clipPath id="clip0_3323_439">
<rect width="24" height="24" fill="white"/>
</clipPath>
<clipPath id="clip1_3323_439">
<rect width="24" height="24" fill="white" transform="translate(64)"/>
</clipPath>
<clipPath id="clip2_3323_439">
<rect width="24" height="24" fill="white" transform="translate(128)"/>
</clipPath>
</defs>
</svg>
