<svg width="16.676514" height="16.663818" viewBox="0 0 16.6765 16.6638" fill="none" xmlns="http://www.w3.org/2000/svg" xmlns:xlink="http://www.w3.org/1999/xlink">
	<desc>
			Created with Pixso.
	</desc>
	<defs/>
	<path id="Vector" d="M16.4424 15.259L13.3508 12.1924C14.5508 10.696 15.1321 8.79688 14.9749 6.88525C14.8176 4.97339 13.9338 3.19482 12.5054 1.91455C11.0769 0.634521 9.21216 -0.0495605 7.29492 0.00292969C5.37744 0.0551758 3.55298 0.840332 2.19678 2.19678C0.840332 3.55298 0.0551758 5.37744 0.00292969 7.29492C-0.0495605 9.21216 0.634521 11.0769 1.91455 12.5054C3.19482 13.9338 4.97339 14.8176 6.88525 14.9749C8.79688 15.1321 10.696 14.5508 12.1924 13.3508L15.259 16.4175C15.3367 16.4956 15.4287 16.5576 15.5303 16.5999C15.6318 16.6421 15.7407 16.6638 15.8508 16.6638C15.9607 16.6638 16.0696 16.6421 16.1711 16.5999C16.2727 16.5576 16.365 16.4956 16.4424 16.4175C16.5925 16.262 16.6765 16.0544 16.6765 15.8381C16.6765 15.6221 16.5925 15.4146 16.4424 15.259ZM7.51733 13.3508C6.36377 13.3508 5.23584 13.0085 4.27661 12.3677C3.31738 11.7266 2.56958 10.8157 2.12817 9.74976C1.68652 8.68384 1.57104 7.51099 1.79614 6.37939C2.02124 5.2478 2.5769 4.2085 3.39258 3.39258C4.2085 2.5769 5.2478 2.02124 6.37939 1.79614C7.51099 1.57104 8.68384 1.68652 9.74976 2.12817C10.8157 2.56958 11.7266 3.31738 12.3677 4.27661C13.0085 5.23584 13.3508 6.36377 13.3508 7.51733C13.3508 9.06445 12.7361 10.5483 11.6421 11.6421C10.5483 12.7361 9.06445 13.3508 7.51733 13.3508Z" fill="#667479" fill-opacity="1.000000" fill-rule="nonzero"/>
</svg>
